A man's life, thoughts, feelings and his very own darkness... Adapted from Dostoevsky's novel "Notes from Undergroud", Demirkubuz follows Muharrem as he gets himself invited to a party where he is not welcome, just to find himself disgusted. Written by esec

General 
Complete name : Zeki Demirkubuz - Yeralti (2012)Yeralti.avi 
Format : AVI 
Format/Info : Audio Video Interleave 
File size : 1.51 GiB 
Duration : 1h 45mn 
Overall bit rate : 2 041 Kbps 
Writing application : VirtualDubMod 1.5.10.2 (build 2540/release) 
Writing library : VirtualDubMod build 2540/release 

Video 
ID : 0 
Format : MPEG-4 Visual 
Format profile : Advanced Simple@L5 
Format settings, BVOP : 1 
Format settings, QPel : No 
Format settings, GMC : No warppoints 
Format settings, Matrix : Default (MPEG) 
Codec ID : XVID 
Codec ID/Hint : XviD 
Duration : 1h 45mn 
Bit rate : 1 840 Kbps 
Width : 704 pixels 
Height : 304 pixels 
Display aspect ratio : 2.35:1 
Frame rate : 25.000 fps 
Color space : YUV 
Chroma subsampling : 4:2:0 
Bit depth : 8 bits 
Scan type : Progressive 
Compression mode : Lossy 
Bits/(Pixel*Frame) : 0.344 
Stream size : 1.36 GiB (90%) 
Writing library : XviD 64 

Audio 
ID : 1 
Format : AC-3 
Format/Info : Audio Coding 3 
Mode extension : CM (complete main) 
Format settings, Endianness : Big 
Codec ID : 2000 
Duration : 1h 45mn 
Bit rate mode : Constant 
Bit rate : 192 Kbps 
Channel(s) : 2 channels 
Channel positions : Front: L R 
Sampling rate : 48.0 KHz 
Bit depth : 16 bits 
Compression mode : Lossy 
Stream size : 145 MiB (9%) 
Alignment : Split accross interleaves 
Interleave, duration : 40 ms (1.00 video frame) 
Interleave, preload duration : 500 ms 

My rip.

SUBS: English, Turkish and Portuguese